<svg width="1185" height="1080" viewBox="0 0 1185 1080" fill="none" xmlns="http://www.w3.org/2000/svg">
<path d="M1100 330V70C1100 58.9543 1091.05 50 1080 50H633C621.954 50 613 58.9543 613 70V430C613 441.046 621.954 450 633 450H789" stroke="#3B4252"/>
<rect x="0.5" y="-49.5" width="486" height="399" rx="19.5" stroke="#3B4252"/>
<rect x="790.5" y="326.5" width="486" height="399" rx="19.5" stroke="#3B4252"/>
<rect x="358.5" y="417.5" width="486" height="399" rx="19.5" stroke="#3B4252"/>
<rect x="848.5" y="880.5" width="486" height="399" rx="19.5" stroke="#3B4252"/>
<rect x="586.5" y="637.5" width="486" height="399" rx="19.5" stroke="#3B4252"/>
<rect x="228.5" y="-24.5" width="486" height="399" rx="19.5" stroke="#3B4252"/>
<rect x="72.5" y="250.5" width="486" height="399" rx="19.5" stroke="#3B4252"/>
</svg>
